<mxfile host="app.diagrams.net" modified="2024-02-07T09:04:47.819Z" agent="Mozilla/5.0 (Windows NT 10.0; Win64; x64) AppleWebKit/537.36 (KHTML, like Gecko) Chrome/92.0.4515.131 Safari/537.36 Edg/92.0.902.67" etag="GUckfD_VETRLuP613Tjv" version="23.1.1" type="device">
  <diagram name="第 1 页" id="eAIl72qo0GzvI1b41nyo">
    <mxGraphModel dx="1434" dy="796" grid="1" gridSize="10" guides="1" tooltips="1" connect="1" arrows="1" fold="1" page="1" pageScale="1" pageWidth="291" pageHeight="413" math="0" shadow="0">
      <root>
        <mxCell id="0" />
        <mxCell id="1" parent="0" />
        <mxCell id="07O7aNL94G9FdYniC7r7-137" value="LinkedList,Range,MultiDictionary" style="rounded=0;whiteSpace=wrap;html=1;" parent="1" vertex="1">
          <mxGeometry x="7.5" y="10" width="182.5" height="30" as="geometry" />
        </mxCell>
        <mxCell id="07O7aNL94G9FdYniC7r7-138" value="" style="group" parent="1" vertex="1" connectable="0">
          <mxGeometry x="145" y="60" width="582.5" height="310" as="geometry" />
        </mxCell>
        <mxCell id="07O7aNL94G9FdYniC7r7-90" value="" style="group" parent="07O7aNL94G9FdYniC7r7-138" vertex="1" connectable="0">
          <mxGeometry x="100" y="50" width="360" height="60" as="geometry" />
        </mxCell>
        <mxCell id="07O7aNL94G9FdYniC7r7-84" value="13" style="rounded=0;whiteSpace=wrap;html=1;" parent="07O7aNL94G9FdYniC7r7-90" vertex="1">
          <mxGeometry x="240" y="20" width="20" height="40" as="geometry" />
        </mxCell>
        <mxCell id="07O7aNL94G9FdYniC7r7-85" value="14" style="rounded=0;whiteSpace=wrap;html=1;" parent="07O7aNL94G9FdYniC7r7-90" vertex="1">
          <mxGeometry x="260" y="20" width="20" height="40" as="geometry" />
        </mxCell>
        <mxCell id="07O7aNL94G9FdYniC7r7-86" value="15" style="rounded=0;whiteSpace=wrap;html=1;" parent="07O7aNL94G9FdYniC7r7-90" vertex="1">
          <mxGeometry x="280" y="20" width="20" height="40" as="geometry" />
        </mxCell>
        <mxCell id="07O7aNL94G9FdYniC7r7-87" value="16" style="rounded=0;whiteSpace=wrap;html=1;" parent="07O7aNL94G9FdYniC7r7-90" vertex="1">
          <mxGeometry x="300" y="20" width="20" height="40" as="geometry" />
        </mxCell>
        <mxCell id="07O7aNL94G9FdYniC7r7-88" value="17" style="rounded=0;whiteSpace=wrap;html=1;" parent="07O7aNL94G9FdYniC7r7-90" vertex="1">
          <mxGeometry x="320" y="20" width="20" height="40" as="geometry" />
        </mxCell>
        <mxCell id="07O7aNL94G9FdYniC7r7-89" value="18" style="rounded=0;whiteSpace=wrap;html=1;" parent="07O7aNL94G9FdYniC7r7-90" vertex="1">
          <mxGeometry x="340" y="20" width="20" height="40" as="geometry" />
        </mxCell>
        <mxCell id="07O7aNL94G9FdYniC7r7-69" value="OSFramworkLinkedList" style="rounded=0;whiteSpace=wrap;html=1;" parent="07O7aNL94G9FdYniC7r7-90" vertex="1">
          <mxGeometry width="360" height="20" as="geometry" />
        </mxCell>
        <mxCell id="07O7aNL94G9FdYniC7r7-70" value="1" style="rounded=0;whiteSpace=wrap;html=1;" parent="07O7aNL94G9FdYniC7r7-90" vertex="1">
          <mxGeometry y="20" width="20" height="40" as="geometry" />
        </mxCell>
        <mxCell id="07O7aNL94G9FdYniC7r7-72" value="2" style="rounded=0;whiteSpace=wrap;html=1;" parent="07O7aNL94G9FdYniC7r7-90" vertex="1">
          <mxGeometry x="20" y="20" width="20" height="40" as="geometry" />
        </mxCell>
        <mxCell id="07O7aNL94G9FdYniC7r7-73" value="3" style="rounded=0;whiteSpace=wrap;html=1;" parent="07O7aNL94G9FdYniC7r7-90" vertex="1">
          <mxGeometry x="40" y="20" width="20" height="40" as="geometry" />
        </mxCell>
        <mxCell id="07O7aNL94G9FdYniC7r7-74" value="4" style="rounded=0;whiteSpace=wrap;html=1;" parent="07O7aNL94G9FdYniC7r7-90" vertex="1">
          <mxGeometry x="60" y="20" width="20" height="40" as="geometry" />
        </mxCell>
        <mxCell id="07O7aNL94G9FdYniC7r7-75" value="5" style="rounded=0;whiteSpace=wrap;html=1;" parent="07O7aNL94G9FdYniC7r7-90" vertex="1">
          <mxGeometry x="80" y="20" width="20" height="40" as="geometry" />
        </mxCell>
        <mxCell id="07O7aNL94G9FdYniC7r7-76" value="6" style="rounded=0;whiteSpace=wrap;html=1;" parent="07O7aNL94G9FdYniC7r7-90" vertex="1">
          <mxGeometry x="100" y="20" width="20" height="40" as="geometry" />
        </mxCell>
        <mxCell id="07O7aNL94G9FdYniC7r7-78" value="7" style="rounded=0;whiteSpace=wrap;html=1;" parent="07O7aNL94G9FdYniC7r7-90" vertex="1">
          <mxGeometry x="120" y="20" width="20" height="40" as="geometry" />
        </mxCell>
        <mxCell id="07O7aNL94G9FdYniC7r7-79" value="8" style="rounded=0;whiteSpace=wrap;html=1;" parent="07O7aNL94G9FdYniC7r7-90" vertex="1">
          <mxGeometry x="140" y="20" width="20" height="40" as="geometry" />
        </mxCell>
        <mxCell id="07O7aNL94G9FdYniC7r7-80" value="9" style="rounded=0;whiteSpace=wrap;html=1;" parent="07O7aNL94G9FdYniC7r7-90" vertex="1">
          <mxGeometry x="160" y="20" width="20" height="40" as="geometry" />
        </mxCell>
        <mxCell id="07O7aNL94G9FdYniC7r7-81" value="10" style="rounded=0;whiteSpace=wrap;html=1;" parent="07O7aNL94G9FdYniC7r7-90" vertex="1">
          <mxGeometry x="180" y="20" width="20" height="40" as="geometry" />
        </mxCell>
        <mxCell id="07O7aNL94G9FdYniC7r7-82" value="11" style="rounded=0;whiteSpace=wrap;html=1;" parent="07O7aNL94G9FdYniC7r7-90" vertex="1">
          <mxGeometry x="200" y="20" width="20" height="40" as="geometry" />
        </mxCell>
        <mxCell id="07O7aNL94G9FdYniC7r7-83" value="12" style="rounded=0;whiteSpace=wrap;html=1;" parent="07O7aNL94G9FdYniC7r7-90" vertex="1">
          <mxGeometry x="220" y="20" width="20" height="40" as="geometry" />
        </mxCell>
        <mxCell id="07O7aNL94G9FdYniC7r7-91" value="" style="shape=curlyBracket;whiteSpace=wrap;html=1;rounded=1;labelPosition=left;verticalLabelPosition=middle;align=right;verticalAlign=middle;rotation=-90;size=0.5;" parent="07O7aNL94G9FdYniC7r7-138" vertex="1">
          <mxGeometry x="137.5" y="87.5" width="20" height="75" as="geometry" />
        </mxCell>
        <mxCell id="07O7aNL94G9FdYniC7r7-93" value="&lt;font style=&quot;font-size: 8px;&quot;&gt;OSFrameworkLinkedListRange&lt;/font&gt;" style="whiteSpace=wrap;html=1;" parent="07O7aNL94G9FdYniC7r7-138" vertex="1">
          <mxGeometry x="47.5" y="172.5" width="200" height="20" as="geometry" />
        </mxCell>
        <mxCell id="07O7aNL94G9FdYniC7r7-95" value="" style="endArrow=classic;html=1;rounded=0;exitX=0.1;exitY=0.5;exitDx=0;exitDy=0;exitPerimeter=0;entryX=0.5;entryY=0;entryDx=0;entryDy=0;" parent="07O7aNL94G9FdYniC7r7-138" source="07O7aNL94G9FdYniC7r7-91" target="07O7aNL94G9FdYniC7r7-93" edge="1">
          <mxGeometry width="50" height="50" relative="1" as="geometry">
            <mxPoint x="210" y="280" as="sourcePoint" />
            <mxPoint x="260" y="230" as="targetPoint" />
          </mxGeometry>
        </mxCell>
        <mxCell id="07O7aNL94G9FdYniC7r7-96" value="" style="shape=curlyBracket;whiteSpace=wrap;html=1;rounded=1;labelPosition=left;verticalLabelPosition=middle;align=right;verticalAlign=middle;rotation=-90;size=0.5;" parent="07O7aNL94G9FdYniC7r7-138" vertex="1">
          <mxGeometry x="273.75" y="58.75" width="20" height="132.5" as="geometry" />
        </mxCell>
        <mxCell id="07O7aNL94G9FdYniC7r7-97" value="" style="endArrow=classic;html=1;rounded=0;exitX=0.1;exitY=0.5;exitDx=0;exitDy=0;exitPerimeter=0;" parent="07O7aNL94G9FdYniC7r7-138" source="07O7aNL94G9FdYniC7r7-96" target="07O7aNL94G9FdYniC7r7-98" edge="1">
          <mxGeometry width="50" height="50" relative="1" as="geometry">
            <mxPoint x="292.5" y="170" as="sourcePoint" />
            <mxPoint x="244.5" y="187" as="targetPoint" />
          </mxGeometry>
        </mxCell>
        <mxCell id="07O7aNL94G9FdYniC7r7-98" value="&lt;font style=&quot;font-size: 8px;&quot;&gt;OSFrameworkLinkedListRange&lt;/font&gt;" style="whiteSpace=wrap;html=1;" parent="07O7aNL94G9FdYniC7r7-138" vertex="1">
          <mxGeometry x="183.75" y="200" width="200" height="20" as="geometry" />
        </mxCell>
        <mxCell id="07O7aNL94G9FdYniC7r7-99" value="" style="shape=curlyBracket;whiteSpace=wrap;html=1;rounded=1;labelPosition=left;verticalLabelPosition=middle;align=right;verticalAlign=middle;rotation=-90;size=0.5;" parent="07O7aNL94G9FdYniC7r7-138" vertex="1">
          <mxGeometry x="398.75" y="88.75" width="20" height="72.5" as="geometry" />
        </mxCell>
        <mxCell id="07O7aNL94G9FdYniC7r7-100" value="&lt;font style=&quot;font-size: 8px;&quot;&gt;OSFrameworkLinkedListRange&lt;/font&gt;" style="whiteSpace=wrap;html=1;" parent="07O7aNL94G9FdYniC7r7-138" vertex="1">
          <mxGeometry x="308.75" y="172.5" width="200" height="20" as="geometry" />
        </mxCell>
        <mxCell id="07O7aNL94G9FdYniC7r7-101" value="" style="endArrow=classic;html=1;rounded=0;exitX=0.1;exitY=0.5;exitDx=0;exitDy=0;exitPerimeter=0;" parent="07O7aNL94G9FdYniC7r7-138" source="07O7aNL94G9FdYniC7r7-99" target="07O7aNL94G9FdYniC7r7-100" edge="1">
          <mxGeometry width="50" height="50" relative="1" as="geometry">
            <mxPoint x="444.0999999999998" y="122.99999999999989" as="sourcePoint" />
            <mxPoint x="339.99912280701744" y="170" as="targetPoint" />
          </mxGeometry>
        </mxCell>
        <mxCell id="07O7aNL94G9FdYniC7r7-102" value="" style="endArrow=classic;html=1;rounded=0;exitX=0;exitY=0.5;exitDx=0;exitDy=0;" parent="07O7aNL94G9FdYniC7r7-138" source="07O7aNL94G9FdYniC7r7-70" target="07O7aNL94G9FdYniC7r7-103" edge="1">
          <mxGeometry width="50" height="50" relative="1" as="geometry">
            <mxPoint x="110" y="70" as="sourcePoint" />
            <mxPoint x="80" y="130" as="targetPoint" />
          </mxGeometry>
        </mxCell>
        <mxCell id="07O7aNL94G9FdYniC7r7-103" value="Range.First" style="rounded=0;whiteSpace=wrap;html=1;" parent="07O7aNL94G9FdYniC7r7-138" vertex="1">
          <mxGeometry y="80" width="80" height="20" as="geometry" />
        </mxCell>
        <mxCell id="07O7aNL94G9FdYniC7r7-105" value="Range.Terminal" style="rounded=0;whiteSpace=wrap;html=1;" parent="07O7aNL94G9FdYniC7r7-138" vertex="1">
          <mxGeometry x="143.75" width="92.5" height="20" as="geometry" />
        </mxCell>
        <mxCell id="07O7aNL94G9FdYniC7r7-106" value="" style="endArrow=classic;html=1;rounded=0;exitX=0.5;exitY=0;exitDx=0;exitDy=0;entryX=0.5;entryY=1;entryDx=0;entryDy=0;" parent="07O7aNL94G9FdYniC7r7-138" source="07O7aNL94G9FdYniC7r7-75" target="07O7aNL94G9FdYniC7r7-105" edge="1">
          <mxGeometry width="50" height="50" relative="1" as="geometry">
            <mxPoint x="120" y="120" as="sourcePoint" />
            <mxPoint x="190" y="40" as="targetPoint" />
          </mxGeometry>
        </mxCell>
        <mxCell id="07O7aNL94G9FdYniC7r7-108" value="" style="endArrow=classic;html=1;rounded=0;exitX=0.5;exitY=1;exitDx=0;exitDy=0;" parent="07O7aNL94G9FdYniC7r7-138" target="07O7aNL94G9FdYniC7r7-109" edge="1">
          <mxGeometry width="50" height="50" relative="1" as="geometry">
            <mxPoint x="210" y="110" as="sourcePoint" />
            <mxPoint x="180" y="130" as="targetPoint" />
          </mxGeometry>
        </mxCell>
        <mxCell id="07O7aNL94G9FdYniC7r7-109" value="Range.First" style="rounded=0;whiteSpace=wrap;html=1;" parent="07O7aNL94G9FdYniC7r7-138" vertex="1">
          <mxGeometry x="170" y="142.5" width="80" height="20" as="geometry" />
        </mxCell>
        <mxCell id="07O7aNL94G9FdYniC7r7-114" value="Range.Terminal" style="rounded=0;whiteSpace=wrap;html=1;" parent="07O7aNL94G9FdYniC7r7-138" vertex="1">
          <mxGeometry x="303.75" y="142.5" width="92.5" height="20" as="geometry" />
        </mxCell>
        <mxCell id="07O7aNL94G9FdYniC7r7-115" value="" style="endArrow=classic;html=1;rounded=0;exitX=0.5;exitY=1;exitDx=0;exitDy=0;entryX=0.5;entryY=0;entryDx=0;entryDy=0;" parent="07O7aNL94G9FdYniC7r7-138" source="07O7aNL94G9FdYniC7r7-84" target="07O7aNL94G9FdYniC7r7-114" edge="1">
          <mxGeometry width="50" height="50" relative="1" as="geometry">
            <mxPoint x="352.5" y="110" as="sourcePoint" />
            <mxPoint x="282.5" y="151" as="targetPoint" />
          </mxGeometry>
        </mxCell>
        <mxCell id="07O7aNL94G9FdYniC7r7-118" value="Range.Terminal" style="rounded=0;whiteSpace=wrap;html=1;" parent="07O7aNL94G9FdYniC7r7-138" vertex="1">
          <mxGeometry x="490" y="80" width="92.5" height="20" as="geometry" />
        </mxCell>
        <mxCell id="07O7aNL94G9FdYniC7r7-121" value="Range.First" style="rounded=0;whiteSpace=wrap;html=1;" parent="07O7aNL94G9FdYniC7r7-138" vertex="1">
          <mxGeometry x="330" width="80" height="20" as="geometry" />
        </mxCell>
        <mxCell id="07O7aNL94G9FdYniC7r7-123" style="edgeStyle=orthogonalEdgeStyle;rounded=0;orthogonalLoop=1;jettySize=auto;html=1;exitX=1;exitY=0.5;exitDx=0;exitDy=0;entryX=0;entryY=0.5;entryDx=0;entryDy=0;" parent="07O7aNL94G9FdYniC7r7-138" source="07O7aNL94G9FdYniC7r7-89" target="07O7aNL94G9FdYniC7r7-118" edge="1">
          <mxGeometry relative="1" as="geometry" />
        </mxCell>
        <mxCell id="07O7aNL94G9FdYniC7r7-124" style="edgeStyle=orthogonalEdgeStyle;rounded=0;orthogonalLoop=1;jettySize=auto;html=1;exitX=0.5;exitY=0;exitDx=0;exitDy=0;entryX=0.5;entryY=1;entryDx=0;entryDy=0;" parent="07O7aNL94G9FdYniC7r7-138" source="07O7aNL94G9FdYniC7r7-85" target="07O7aNL94G9FdYniC7r7-121" edge="1">
          <mxGeometry relative="1" as="geometry" />
        </mxCell>
        <mxCell id="07O7aNL94G9FdYniC7r7-125" value="Key" style="rounded=0;whiteSpace=wrap;html=1;" parent="07O7aNL94G9FdYniC7r7-138" vertex="1">
          <mxGeometry x="128.75" y="240" width="37.5" height="20" as="geometry" />
        </mxCell>
        <mxCell id="07O7aNL94G9FdYniC7r7-128" style="edgeStyle=orthogonalEdgeStyle;rounded=0;orthogonalLoop=1;jettySize=auto;html=1;entryX=0.5;entryY=0;entryDx=0;entryDy=0;" parent="07O7aNL94G9FdYniC7r7-138" source="07O7aNL94G9FdYniC7r7-93" target="07O7aNL94G9FdYniC7r7-125" edge="1">
          <mxGeometry relative="1" as="geometry" />
        </mxCell>
        <mxCell id="07O7aNL94G9FdYniC7r7-126" value="Key" style="rounded=0;whiteSpace=wrap;html=1;" parent="07O7aNL94G9FdYniC7r7-138" vertex="1">
          <mxGeometry x="265" y="240" width="37.5" height="20" as="geometry" />
        </mxCell>
        <mxCell id="07O7aNL94G9FdYniC7r7-127" value="Key" style="rounded=0;whiteSpace=wrap;html=1;" parent="07O7aNL94G9FdYniC7r7-138" vertex="1">
          <mxGeometry x="390" y="240" width="37.5" height="20" as="geometry" />
        </mxCell>
        <mxCell id="07O7aNL94G9FdYniC7r7-131" value="" style="shape=curlyBracket;whiteSpace=wrap;html=1;rounded=1;labelPosition=left;verticalLabelPosition=middle;align=right;verticalAlign=middle;rotation=-90;size=0.5;" parent="07O7aNL94G9FdYniC7r7-138" vertex="1">
          <mxGeometry x="268.75" y="151.25" width="20" height="252.5" as="geometry" />
        </mxCell>
        <mxCell id="07O7aNL94G9FdYniC7r7-132" value="OSFrameworkMultiDictionary" style="rounded=0;whiteSpace=wrap;html=1;" parent="07O7aNL94G9FdYniC7r7-138" vertex="1">
          <mxGeometry x="179.38" y="290" width="198.75" height="20" as="geometry" />
        </mxCell>
        <mxCell id="07O7aNL94G9FdYniC7r7-129" style="edgeStyle=orthogonalEdgeStyle;rounded=0;orthogonalLoop=1;jettySize=auto;html=1;entryX=0.5;entryY=0;entryDx=0;entryDy=0;" parent="07O7aNL94G9FdYniC7r7-138" source="07O7aNL94G9FdYniC7r7-98" target="07O7aNL94G9FdYniC7r7-126" edge="1">
          <mxGeometry relative="1" as="geometry" />
        </mxCell>
        <mxCell id="07O7aNL94G9FdYniC7r7-130" style="edgeStyle=orthogonalEdgeStyle;rounded=0;orthogonalLoop=1;jettySize=auto;html=1;entryX=0.5;entryY=0;entryDx=0;entryDy=0;" parent="07O7aNL94G9FdYniC7r7-138" source="07O7aNL94G9FdYniC7r7-100" target="07O7aNL94G9FdYniC7r7-127" edge="1">
          <mxGeometry relative="1" as="geometry" />
        </mxCell>
      </root>
    </mxGraphModel>
  </diagram>
</mxfile>
